<svg version="1.2" xmlns="http://www.w3.org/2000/svg" viewBox="0 0 721 721" width="721" height="721">
	<style>
		.s0 { fill: #000000 } 
	</style>
	<g>
		<path class="s0" d="m114.55 715.14c-0.52 0.47-1.99 0.86-3.26 0.86-2.25 0-2.19-0.24 2.19-8.75 2.47-4.81 7.92-14.6 12.11-21.75 16.99-29.01 19.11-33.41 26.48-55 3.94-11.55 7.74-23.03 8.44-25.5 3.69-12.99 8.32-24.96 14.7-37.93 6.23-12.68 8.05-15.43 14.88-22.54 4.28-4.46 10.4-9.86 13.6-12.01 8-5.37 10.31-7.55 10.31-9.74 0-3.41 2.85-7.53 5.7-8.24 1.52-0.38 7.05-2.51 12.28-4.74 33.74-14.33 54.87-31.54 71.51-58.23 2.62-4.21 4.52-7.9 4.21-8.2-0.3-0.3-9.62 6.5-20.71 15.11-11.09 8.62-23.32 17.71-27.17 20.2-7.95 5.15-23.71 12.74-34.82 16.77-8.86 3.22-30.11 8.77-30.82 8.06-0.28-0.27 1.6-3.09 4.16-6.25 4.91-6.07 28.43-40.85 35.68-52.76 5.68-9.34 19.59-36.68 24.67-48.5l0.27-0.64c4.32-10.05 5.79-13.45 5.74-16.84-0.03-1.81-0.49-3.61-1.18-6.42-3.56-14.54-12.38-28.92-30.41-49.6-3.36-3.85-11.53-13.41-18.17-21.25-6.64-7.84-12.24-14.25-12.46-14.25-0.22 0 1.41 3.35 3.62 7.44l4.01 7.45-3.75 0.7c-5.35 1.01-29.93-0.23-42.84-2.15-18.74-2.79-36.48-8.75-51.02-17.14-9.82-5.66-18.5-12.12-18.5-13.76 0-2.56 10.06-15.36 18.18-23.14 4.65-4.45 11.62-9.98 15.5-12.28 14.84-8.82 35.01-15.18 58.93-18.59 9.83-1.4 13.36-2.41 20.39-5.8 7.79-3.77 9.3-4.15 18.16-4.51 7.59-0.32 11.42 0.06 17.91 1.74q0.52 0.14 1 0.26c4.17 1.08 6.11 1.59 7.44 0.91 1.27-0.65 1.98-2.38 3.53-5.71 2.93-6.29 3.32-15.03 0.89-20.06-2.58-5.33-11.16-13.43-17.8-16.79-5.15-2.61-5.2-2.68-4.54-6.36 4.67-25.99 27.19-47.25 56.41-53.24 9.46-1.94 33.61-2.84 32.78-1.22-3.53 6.86-9.64 20.37-10.12 22.36-0.54 2.24 0.38 3.64 6.65 10.09 5.32 5.48 8.54 9.97 11.99 16.73 2.6 5.07 4.46 9.65 4.14 10.17-0.32 0.52-3.97 0.72-8.26 0.44-23.46-1.52-32.18-1.59-32.18-0.28 0 0.73 2.28 8.27 5.07 16.76 5.1 15.51 13.05 32.71 15.58 33.68 0.75 0.28 10.47-0.93 21.61-2.7 11.13-1.78 25.86-4.04 32.74-5.03 6.88-0.99 42.42-6.11 78.98-11.39 36.57-5.27 66.77-9.58 67.12-9.58 0.34 0 2.27-1.3 4.27-2.9 3.86-3.07 9.41-4.39 23.63-5.63 6.79-0.59 7.77-0.45 10.33 1.57l2.82 2.22 11.18-1.7c6.14-0.94 12.86-2.01 14.92-2.38l3.75-0.68-4.14-6.78c-2.28-3.72-3.97-6.94-3.75-7.14 0.36-0.35 20.75 4.47 40.64 9.6 4.54 1.17 8.25 2.5 8.25 2.97 0 0.47-0.47 0.85-1.05 0.85-0.94 0-23.1 11.97-34.95 18.88-7.92 4.61-8.18 4.63-7.4 0.35 0.38-2.05 1.28-5.42 2-7.48 1.31-3.74 1.3-3.75-1.39-3.7-3.97 0.07-26.09 3.49-26.72 4.13-0.3 0.3-0.07 1.79 0.51 3.31 0.58 1.53 0.74 3.73 0.37 4.89-0.38 1.17-0.79 4.14-0.91 6.62-0.34 6.54-1.96 12.79-3.87 14.91-2.75 3.03-12.29 5.42-24.09 6.04l-11 0.58-11 7.08c-26.03 16.75-46.02 27.07-58.74 30.32-4.16 1.07-9.75 3.03-12.41 4.37-9.66 4.86-51.05 16.62-53.39 15.18-0.38-0.24-0.96-1.75-1.28-3.35-0.52-2.58 0.24-3.76 6.62-10.34 9.28-9.59 23.33-28.74 18.18-24.79-1.07 0.83-3.53 3.01-5.47 4.85-1.93 1.85-8.95 7.37-15.59 12.28l-12.09 8.93 2.59 5.22c3.95 7.99 3.49 20.92-1.77 49.22-4.02 21.66-7.15 42.86-7.15 48.46 0 2.54 0.88 3.34 7.75 7.09 19.07 10.42 47.8 28.7 68.53 43.61 26.4 18.99 52.17 43.59 74.39 71.03 7.63 9.42 8.14 10.35 7.71 13.95-0.47 4.02-12.89 121.61-13.89 131.49l-0.56 5.63 7.28 6.43c4.01 3.54 8.48 7.3 9.93 8.37 1.45 1.07 5.96 4.64 10.01 7.94 4.05 3.3 9.85 7.89 12.89 10.2 3.04 2.32 6.6 5.35 7.92 6.75l2.39 2.55-4.43-0.02c-2.43-0.01-7.57-0.48-11.42-1.04-8.17-1.18-74.29-8.92-76.5-8.95-3.84-0.05-4.11-1.49-1.42-7.56 1.44-3.26 4.62-10.85 7.05-16.87 4.32-10.68 4.4-11.08 3.31-16.5-0.62-3.06-5.77-19.73-11.46-37.06-5.69-17.33-10.87-34.92-11.52-39.09-1.06-6.83-0.97-8.43 0.94-16 1.17-4.63 3.69-11.72 5.61-15.76 1.92-4.05 3.49-7.55 3.49-7.78 0-1.37-33.07-14.63-39.9-16-1.73-0.35-3.36-0.99-3.63-1.42-0.27-0.44 3.29-4.09 7.92-8.12 4.62-4.03 8.25-7.5 8.06-7.7-0.4-0.41-18.53 9.62-31.45 17.39-15.51 9.34-37.31 20.15-52 25.79-17.94 6.89-34.77 12.26-35.65 11.37-0.37-0.37 0.54-4.61 2.02-9.43 4.1-13.36 6.46-26.26 7.72-42.24 1.19-15.11 0.52-38.78-1.15-40.46-0.59-0.6-0.94-0.36-0.94 0.64 0 6.45-11.83 38.12-20.87 55.91-16.49 32.4-32.14 51.9-66.81 83.24-11.66 10.54-26.53 25.33-41.88 41.66-8.38 8.91-17.87 21.2-20.5 26.54-2.22 4.51-2.44 6.15-2.41 18.07l0.04 13.11-15.37 6.89c-8.45 3.79-17.24 7.56-19.54 8.39-2.29 0.83-5.06 2.01-6.16 2.63-1.1 0.63-5.6 2.6-10 4.4-4.4 1.79-8.43 3.64-8.95 4.11zm420.95-544.62c-11.19 2.02-11.68 1.95-14.28-2.07-1.26-1.93-3.63-4.34-5.28-5.34l-2.99-1.82-0.33-15.89c-0.48-23.07-4.85-39.93-16.16-62.4-11.02-21.91-22.67-36.3-42.26-52.18-8.55-6.93-26.64-18.62-33.45-21.62-10.69-4.7-2.29-3.84 14.74 1.52 32.02 10.07 62.16 31.37 83.15 58.78 15.68 20.46 25.01 39.15 31.33 62.7 3.66 13.66 3.69 14.73 0.57 19.33-2.57 3.79-6.54 13.5-6.54 16.01 0 0.8-0.11 1.48-0.25 1.49-0.14 0.02-3.85 0.69-8.25 1.49zm-47.48 225.22c-4.11 2.34-8.08 4.26-8.82 4.26-0.75 0 1.73-3.04 5.5-6.75 18.35-18.08 33.57-43.19 41.24-68.06 8.09-26.23 8.95-49.55 2.61-71.44-2.37-8.16-2.37-8.2-0.43-10.92 1.08-1.51 2.86-4.79 3.96-7.29 1.93-4.34 2.2-4.54 6.22-4.55 2.31-0.01 6.18-0.71 8.6-1.55 2.43-0.85 4.9-1.34 5.5-1.1 0.61 0.24 1.97 2.18 3.02 4.3 1.06 2.12 4.39 6.22 7.41 9.11l5.48 5.24-0.63 13.76c-0.35 7.56-1.55 18.79-2.66 24.94-2.37 13.1-8.7 32.88-13.72 42.81-8.22 16.3-24.51 37.98-35.39 47.08-9.51 7.96-20.75 16.09-27.89 20.16zm-154.02-174.43c2.48 0.47 9.75 0.27 30.07-0.84 5.82-0.32 23.03-0.06 38.24 0.58l27.67 1.15 5.26-2.96c11-6.21 18.62-8.18 61.26-15.88 10.09-1.82 11.04-2.32 15.74-8.19 0.96-1.19 1.58-2.17 1.39-2.17-1.04 0-57.66 8.15-66.11 9.52-5.49 0.88-16.52 2.47-24.5 3.51-7.99 1.05-28.47 3.96-45.52 6.47-17.05 2.51-34.72 5.08-39.27 5.72-8.02 1.11-9.38 2.11-4.23 3.09zm0.01-21.56c-0.01 1.99-0.49 2.24-4.26 2.15-8.38-0.2-18.71-4.04-20.6-7.65-1.46-2.82-7.45-25.28-6.88-25.85 0.28-0.29 3.1 0.23 6.26 1.15 5.57 1.62 14.85 1.64 18.57 0.04 2.35-1.01 6.35 8.72 4.67 11.4-0.91 1.47-0.79 3.48 0.54 9.19 0.95 4.03 1.71 8.33 1.7 9.57zm-171.01 71.86c0 0.21 0.37 0.39 0.82 0.39 1.33 0 14.64-4.66 16.75-5.86 2.13-1.21 25.88-10.26 31.43-11.97 1.92-0.6 7.5-1.77 12.39-2.6 4.89-0.84 9.14-1.77 9.44-2.07 0.3-0.3-0.55-1.32-1.89-2.26-1.75-1.23-4-1.63-7.94-1.43-3.19 0.17-8.65-0.54-13-1.69l-7.5-1.97-7 4.55c-7.33 4.78-33.5 24.23-33.5 24.91zm102-119.2c0 0.52 2.37-1.4 5.27-4.27 8.5-8.42 20.8-14.48 31.9-15.74 3.86-0.44 5.52-0.98 4.66-1.52-3.57-2.27-16.18 0.19-25.6 5.01-3.84 1.95-16.23 14.57-16.23 16.52z"/>
	</g>
</svg>